<svg data-name="Layer 1" xmlns="http://www.w3.org/2000/svg" width="1280" height="640" viewBox="0 0 1280 640"><path fill="#dee2e6" d="M0 0h1280v640H0z"/><path d="M1143.1 335.71h-31.67a8.65 8.65 0 0 1-8.64-8.64v-31.66a8.65 8.65 0 0 1 8.64-8.64h17.27a2.88 2.88 0 0 1 0 5.76h-17.27a2.88 2.88 0 0 0-2.88 2.88v31.66a2.88 2.88 0 0 0 2.88 2.88h31.67a2.88 2.88 0 0 0 2.88-2.88V309.8a2.88 2.88 0 1 1 5.75 0v17.27a8.64 8.64 0 0 1-8.63 8.64zm17.27-37.42V281a2.88 2.88 0 0 0-2.88-2.88h-17.27a2.88 2.88 0 0 0 0 5.76h14.39v14.4a2.88 2.88 0 0 0 5.76 0zm-32.51 16.42l31.67-31.66a2.88 2.88 0 0 0-4.07-4.07l-31.67 31.66a2.89 2.89 0 0 0 0 4.07 2.86 2.86 0 0 0 4.07 0z" fill="#00f"/><path d="M137.08 328.41V287.1h-14.54v-5.24h34.91v5.24H142.9v41.31zM166.17 328.41v-46.55H172v17.46h1.75a10.18 10.18 0 0 1 4-4.69 11.5 11.5 0 0 1 6.23-1.71 10.84 10.84 0 0 1 8.26 3.2c2 2.13 3 5 3 8.67v23.62h-5.81V306a8.1 8.1 0 0 0-1.78-5.62 6.56 6.56 0 0 0-5.09-1.94 10.52 10.52 0 0 0-5.32 1.57 21 21 0 0 0-5.27 4.53v23.86zM236.11 320.73a11.69 11.69 0 0 1-4.77 6.31c-2.14 1.3-5.41 1.95-9.84 1.95q-6.92 0-10.76-3.34t-3.84-9.92v-9.37q0-6.75 4-10.1t10.56-3.34q6.58 0 10.53 3.4t4 10.45v5.35h-23.27v3.66q0 4.37 2.18 6.32c1.45 1.3 3.64 1.95 6.55 1.95s4.82-.39 6.1-1.17a7.14 7.14 0 0 0 2.91-3.78zm-23.39-14.37v1.39h17.45v-.87c0-3.14-.72-5.43-2.18-6.86s-3.64-2.16-6.54-2.16-5.1.69-6.55 2.07-2.18 3.52-2.18 6.43z" fill="#1a1a1a"/><path d="M300.11 316.77l-8.27-25.54v37.18h-5.23v-46.55h7.85l8.61 28 8.56-28h7.56v46.55H314v-37.24l-8.26 25.6zM338.68 329a13.58 13.58 0 0 1-7.88-2.36q-3.46-2.36-3.47-7.59a9.06 9.06 0 0 1 3-7.21 10.31 10.31 0 0 1 7-2.62h12.1v-5a5.59 5.59 0 0 0-1.86-4.43c-1.24-1.08-3.12-1.63-5.64-1.63a11.35 11.35 0 0 0-5.73 1.14c-1.26.76-2.26 2.43-3 5l-5.12-1.39a11.66 11.66 0 0 1 4.45-7.48q3.46-2.54 9.28-2.53a16.77 16.77 0 0 1 9.6 2.59q3.84 2.6 3.84 8v15.62c0 2.1.58 3.41 1.75 3.93a9.4 9.4 0 0 0 5.23.21v5.29a14.84 14.84 0 0 1-6.77-.49c-2.12-.68-3.27-2.51-3.47-5.5h-1.16a13.23 13.23 0 0 1-4.89 4.54 14.38 14.38 0 0 1-7.26 1.91zm.76-4.94A14.06 14.06 0 0 0 345 323a10.24 10.24 0 0 0 4.42-3.77v-5.62H339a7.18 7.18 0 0 0-4.16 1.14c-1.1.76-1.66 2.1-1.66 4a5.24 5.24 0 0 0 1.43 3.92q1.39 1.33 4.83 1.38zM384.82 329a28.29 28.29 0 0 1-8.56-1.31 24.13 24.13 0 0 1-7.62-4l2.62-4.6a20.16 20.16 0 0 0 6.37 3.52 22.13 22.13 0 0 0 7.19 1.19 18.09 18.09 0 0 0 5.79-.92 3.77 3.77 0 0 0 2.76-3.93 3.61 3.61 0 0 0-2.27-3.53c-1.51-.7-4.29-1.3-8.32-1.8q-6.4-.75-9.69-3t-3.28-7.09a8.89 8.89 0 0 1 3.95-7.91 16.11 16.11 0 0 1 9.2-2.65 22.92 22.92 0 0 1 7.94 1.39 26 26 0 0 1 7.07 4l-2.62 4.6a23.49 23.49 0 0 0-5.82-3.44 17.32 17.32 0 0 0-6.57-1.28 12.15 12.15 0 0 0-5.1 1.05 3.85 3.85 0 0 0-2.29 3.84 3.6 3.6 0 0 0 2.12 3.46q2.13 1.08 8.17 1.84 6.64.75 9.95 3.23a8.09 8.09 0 0 1 3.32 6.89 8.55 8.55 0 0 1-4.42 8 19.54 19.54 0 0 1-9.89 2.45zM430.84 328.93q-5.76 0-9-2.85c-2.14-1.9-3.2-4.81-3.2-8.73v-18.61h-9.89v-5.24h9.89v-11.64h5.82v11.64h15.12v5.24H424.5v18.09a6.67 6.67 0 0 0 1.68 5 7 7 0 0 0 5 1.63 24.46 24.46 0 0 0 4.13-.32 28.81 28.81 0 0 0 3.66-.84l1.17 5.29a35.85 35.85 0 0 1-4.22 1 29.92 29.92 0 0 1-5.08.34zM480.47 320.73a11.69 11.69 0 0 1-4.77 6.27c-2.14 1.3-5.41 1.95-9.84 1.95q-6.92 0-10.76-3.34t-3.84-9.92v-9.37q0-6.75 4-10.1t10.56-3.34q6.58 0 10.53 3.4t4 10.45v5.35h-23.27v3.66q0 4.37 2.18 6.32c1.45 1.3 3.64 1.95 6.55 1.95s4.82-.39 6.1-1.17a7.14 7.14 0 0 0 2.91-3.78zm-23.39-14.37v1.39h17.45v-.87c0-3.14-.72-5.43-2.18-6.86s-3.64-2.16-6.54-2.16-5.1.69-6.55 2.07-2.18 3.52-2.18 6.43zM494.9 328.41V293.5h5.81v5.82h1.75a9.16 9.16 0 0 1 3.72-4.86 11.31 11.31 0 0 1 6.05-1.54 8.9 8.9 0 0 1 6.52 2.59c1.75 1.72 2.62 4.16 2.62 7.3v5.24h-5.53v-3.15q0-3.31-1.48-4.88a5.93 5.93 0 0 0-4.51-1.57 9.55 9.55 0 0 0-5 1.33 13.71 13.71 0 0 0-4.16 4.19v24.44zM588 329q-7 0-10.79-3.4t-3.75-9.81v-9.42q0-6.47 3.78-9.95t10.76-3.5q7 0 10.74 3.49t3.75 9.95v9.42q0 6.41-3.75 9.81T588 329zm0-5.24c2.95 0 5.14-.65 6.58-2s2.15-3.32 2.15-6v-9.42q0-4.19-2.15-6.2t-6.58-2c-2.94 0-5.14.67-6.57 2s-2.15 3.41-2.15 6.2v9.42c0 2.68.71 4.68 2.15 6s3.57 1.99 6.57 1.99zM622.89 328.41v-29.67H613v-5.24h9.89v-2.33a8.39 8.39 0 0 1 3.7-7.3 15.59 15.59 0 0 1 9.16-2.59 22.5 22.5 0 0 1 4.8.47 35.42 35.42 0 0 1 3.81 1l-1.16 4.89a31.85 31.85 0 0 0-3.11-.78 21.22 21.22 0 0 0-4.34-.38 10.56 10.56 0 0 0-5.12 1.07 3.74 3.74 0 0 0-1.92 3.52v2.39h14.55v5.24h-14.55v29.67zM706.91 329a10.72 10.72 0 0 1-8.18-3.29 12.07 12.07 0 0 1-3.11-8.64V293.5h5.82v22.4q0 3.84 1.68 5.7a6.68 6.68 0 0 0 5.18 1.86 10.61 10.61 0 0 0 5.33-1.48 20.63 20.63 0 0 0 5.26-4.63V293.5h5.82v34.91h-5.82v-5.82h-1.74a10.2 10.2 0 0 1-4 4.63 11.41 11.41 0 0 1-6.24 1.78zM736.35 328.41V293.5h5.81v5.82h1.75a10.18 10.18 0 0 1 4-4.69 11.52 11.52 0 0 1 6.23-1.71 10.84 10.84 0 0 1 8.26 3.2q3 3.19 3 8.73v23.56h-5.82V306a8 8 0 0 0-1.78-5.62 6.56 6.56 0 0 0-5.09-1.94 10.52 10.52 0 0 0-5.32 1.57 21.15 21.15 0 0 0-5.27 4.53v23.86zM777.07 328.41v-5.24h11.64V287.1h-11.64v-5.24h17.46v41.31h11.63v5.24zM832.34 329q-7 0-10.79-3.4t-3.75-9.81v-9.42q0-6.47 3.78-9.95t10.82-3.49c4.66 0 8.23 1.16 10.74 3.49s3.75 5.64 3.75 9.95v9.42q0 6.41-3.75 9.81c-2.51 2.26-6.14 3.4-10.8 3.4zm0-5.24c2.95 0 5.14-.65 6.58-2s2.15-3.32 2.15-6v-9.42q0-4.19-2.15-6.2t-6.58-2c-2.94 0-5.14.67-6.57 2s-2.15 3.41-2.15 6.2v9.42c0 2.68.71 4.68 2.15 6s3.63 1.99 6.57 1.99zM873.88 329q-7.62 0-11.49-3.34t-3.86-9.87v-9.42q0-6.63 3.86-10t11.44-3.4q6.75 0 10.38 3.05c2.43 2 3.77 5 4 8.93l-5.71.35a7.1 7.1 0 0 0-2.38-5.35c-1.44-1.16-3.57-1.75-6.4-1.75q-4.77 0-7.1 2t-2.33 6.2v9.42q0 4 2.36 6c1.57 1.32 4 2 7.18 2 2.8 0 4.91-.49 6.35-1.48a5.45 5.45 0 0 0 2.32-4.45l5.71.35c-.28 3.57-1.61 6.26-4 8.09s-5.83 2.67-10.33 2.67zM908 312.58v15.83h-5.82v-46.55H908v25.78h3l11.17-14.14h7.1l-13.68 16.26L929 328.41h-6.63L911 312.58zM940 328.41v-5.24h11.63v-24.43H940v-5.24h17.45v29.67h11.64v5.24zm14.54-41.31a7.79 7.79 0 0 1-3.57-.7 2.65 2.65 0 0 1-1.37-2.62v-.4a2.78 2.78 0 0 1 1.37-2.71 9.12 9.12 0 0 1 7.15 0 2.8 2.8 0 0 1 1.37 2.71v.4a2.65 2.65 0 0 1-1.4 2.62 7.85 7.85 0 0 1-3.57.7zM980.71 328.41V293.5h5.81v5.82h1.75a10.18 10.18 0 0 1 4-4.69 11.52 11.52 0 0 1 6.23-1.71 10.84 10.84 0 0 1 8.26 3.2q3 3.19 3 8.73v23.56H1004V306a8 8 0 0 0-1.78-5.62 6.56 6.56 0 0 0-5.09-1.94 10.52 10.52 0 0 0-5.32 1.57 21.15 21.15 0 0 0-5.27 4.53v23.86zM1053.43 331.2a8 8 0 0 1-3.46 7.07 14.71 14.71 0 0 1-8.47 2.36h-10.93a16.22 16.22 0 0 1-8.64-2.1 7.05 7.05 0 0 1-3.41-6.46 6.43 6.43 0 0 1 1.49-4.45 6.27 6.27 0 0 1 4.33-1.89v-1.22a5.9 5.9 0 0 1-3.34-1.68 5.64 5.64 0 0 1-1.31-4.11 7.06 7.06 0 0 1 1.57-4.49c1-1.34 2.81-2.1 5.29-2.29v-1.1a6.26 6.26 0 0 1-3.84-2.84 7.86 7.86 0 0 1-1-3.64v-1.58a8 8 0 0 1 3.44-6.65q3.42-2.62 9.65-2.63h17.2v5.24l-9-1.34v1.05a5.92 5.92 0 0 1 3.52 2.44 6.52 6.52 0 0 1 1.19 3.61v1.5a7.93 7.93 0 0 1-3.08 6.49q-3.09 2.47-10 2.47h-7a3.3 3.3 0 0 0-2.38.78 3.56 3.56 0 0 0-.82 2.65 3.25 3.25 0 0 0 1.14 2.71 5.39 5.39 0 0 0 3.4.9h13.21a14.36 14.36 0 0 1 8.11 2.15c2.07 1.45 3.14 3.79 3.14 7.05zm-23 4.72h11.81a8.1 8.1 0 0 0 4.25-1 4.38 4.38 0 0 0 .14-6.7 6.74 6.74 0 0 0-3.81-1h-18.5v3.93a4.17 4.17 0 0 0 1.57 3.55 7.44 7.44 0 0 0 4.56 1.22zm4.36-25.31a9.46 9.46 0 0 0 5.41-1.29 4.57 4.57 0 0 0 1.87-4v-1.87a4.49 4.49 0 0 0-1.87-4 12.24 12.24 0 0 0-10.82 0 4.49 4.49 0 0 0-1.86 4v1.87a4.56 4.56 0 0 0 1.86 4 9.48 9.48 0 0 0 5.43 1.29z" fill="#00f"/><path fill="none" stroke="#00f" stroke-miterlimit="10" stroke-width="4" d="M286 354.86h871"/></svg>